<svg id="visual" viewBox="0 0 960 540" width="960" height="540" xmlns="http://www.w3.org/2000/svg" xmlns:xlink="http://www.w3.org/1999/xlink" version="1.1"><g stroke-width="1" stroke-linejoin="bevel"><path d="M452.7 278L404.7 185L358 251Z" fill="#1d4e6b" stroke="#1d4e6b"></path><path d="M404.7 185L317 209L358 251Z" fill="#297ea6" stroke="#297ea6"></path><path d="M297 359L388.7 355L358 251Z" fill="#112e42" stroke="#112e42"></path><path d="M358 251L388.7 355L452.7 278Z" fill="#297ea6" stroke="#297ea6"></path><path d="M568.3 264L541.3 174L452.7 278Z" fill="#205a7a" stroke="#205a7a"></path><path d="M452.7 278L541.3 174L404.7 185Z" fill="#297ea6" stroke="#297ea6"></path><path d="M554.3 329L568.3 264L452.7 278Z" fill="#081a28" stroke="#081a28"></path><path d="M241.3 325L297 359L358 251Z" fill="#19435d" stroke="#19435d"></path><path d="M388.7 355L554.3 329L452.7 278Z" fill="#15384f" stroke="#15384f"></path><path d="M541.3 174L508.3 93L404.7 185Z" fill="#19435d" stroke="#19435d"></path><path d="M330 52L233.3 191L317 209Z" fill="#0c2435" stroke="#0c2435"></path><path d="M330 52L317 209L404.7 185Z" fill="#00101c" stroke="#00101c"></path><path d="M317 209L241.3 325L358 251Z" fill="#112e42" stroke="#112e42"></path><path d="M508.3 93L398.7 51L404.7 185Z" fill="#297ea6" stroke="#297ea6"></path><path d="M233.3 191L241.3 325L317 209Z" fill="#15384f" stroke="#15384f"></path><path d="M398.7 51L330 52L404.7 185Z" fill="#15384f" stroke="#15384f"></path><path d="M233.3 191L197.3 294L241.3 325Z" fill="#15384f" stroke="#15384f"></path><path d="M541.3 174L628 128L508.3 93Z" fill="#15384f" stroke="#15384f"></path><path d="M568.3 264L625 149L541.3 174Z" fill="#246688" stroke="#246688"></path><path d="M649 287L625 149L568.3 264Z" fill="#297ea6" stroke="#297ea6"></path><path d="M287 440L395.7 474L388.7 355Z" fill="#246688" stroke="#246688"></path><path d="M388.7 355L549.3 478L554.3 329Z" fill="#19435d" stroke="#19435d"></path><path d="M287 440L388.7 355L297 359Z" fill="#15384f" stroke="#15384f"></path><path d="M287 440L297 359L250.3 430Z" fill="#112e42" stroke="#112e42"></path><path d="M250.3 430L297 359L241.3 325Z" fill="#1d4e6b" stroke="#1d4e6b"></path><path d="M508.3 93L396.7 0L398.7 51Z" fill="#1d4e6b" stroke="#1d4e6b"></path><path d="M398.7 51L396.7 0L330 52Z" fill="#0c2435" stroke="#0c2435"></path><path d="M565.3 0L396.7 0L508.3 93Z" fill="#205a7a" stroke="#205a7a"></path><path d="M658 346L649 287L554.3 329Z" fill="#112e42" stroke="#112e42"></path><path d="M554.3 329L649 287L568.3 264Z" fill="#1d4e6b" stroke="#1d4e6b"></path><path d="M747.7 214L628 128L625 149Z" fill="#081a28" stroke="#081a28"></path><path d="M625 149L628 128L541.3 174Z" fill="#297ea6" stroke="#297ea6"></path><path d="M111.7 384L250.3 430L241.3 325Z" fill="#00101c" stroke="#00101c"></path><path d="M358 540L418.7 540L395.7 474Z" fill="#205a7a" stroke="#205a7a"></path><path d="M330 52L201.3 99L233.3 191Z" fill="#112e42" stroke="#112e42"></path><path d="M233.3 191L89.7 242L197.3 294Z" fill="#205a7a" stroke="#205a7a"></path><path d="M227.3 0L201.3 99L330 52Z" fill="#205a7a" stroke="#205a7a"></path><path d="M396.7 0L319 0L330 52Z" fill="#297ea6" stroke="#297ea6"></path><path d="M639 445L658 346L554.3 329Z" fill="#205a7a" stroke="#205a7a"></path><path d="M649 287L747.7 214L625 149Z" fill="#19435d" stroke="#19435d"></path><path d="M395.7 474L549.3 478L388.7 355Z" fill="#15384f" stroke="#15384f"></path><path d="M628 128L565.3 0L508.3 93Z" fill="#246688" stroke="#246688"></path><path d="M358 540L395.7 474L287 440Z" fill="#081a28" stroke="#081a28"></path><path d="M395.7 474L418.7 540L549.3 478Z" fill="#277297" stroke="#277297"></path><path d="M319 0L227.3 0L330 52Z" fill="#19435d" stroke="#19435d"></path><path d="M204.3 540L358 540L287 440Z" fill="#205a7a" stroke="#205a7a"></path><path d="M629 540L639 445L549.3 478Z" fill="#277297" stroke="#277297"></path><path d="M549.3 478L639 445L554.3 329Z" fill="#112e42" stroke="#112e42"></path><path d="M628 128L605 0L565.3 0Z" fill="#15384f" stroke="#15384f"></path><path d="M706.7 416L716.7 345L658 346Z" fill="#1d4e6b" stroke="#1d4e6b"></path><path d="M658 346L716.7 345L649 287Z" fill="#205a7a" stroke="#205a7a"></path><path d="M628 128L743.7 0L605 0Z" fill="#112e42" stroke="#112e42"></path><path d="M93.7 166L89.7 242L233.3 191Z" fill="#19435d" stroke="#19435d"></path><path d="M197.3 294L111.7 384L241.3 325Z" fill="#19435d" stroke="#19435d"></path><path d="M93.7 166L233.3 191L201.3 99Z" fill="#15384f" stroke="#15384f"></path><path d="M94.7 110L93.7 166L201.3 99Z" fill="#1d4e6b" stroke="#1d4e6b"></path><path d="M418.7 540L546.3 540L549.3 478Z" fill="#1d4e6b" stroke="#1d4e6b"></path><path d="M89.7 242L111.7 384L197.3 294Z" fill="#297ea6" stroke="#297ea6"></path><path d="M250.3 430L204.3 540L287 440Z" fill="#297ea6" stroke="#297ea6"></path><path d="M769.7 235L747.7 214L649 287Z" fill="#246688" stroke="#246688"></path><path d="M639 445L706.7 416L658 346Z" fill="#205a7a" stroke="#205a7a"></path><path d="M716.7 345L769.7 235L649 287Z" fill="#246688" stroke="#246688"></path><path d="M706.7 540L706.7 416L639 445Z" fill="#081a28" stroke="#081a28"></path><path d="M112.7 0L94.7 110L201.3 99Z" fill="#246688" stroke="#246688"></path><path d="M0 140L0 297L89.7 242Z" fill="#112e42" stroke="#112e42"></path><path d="M814.3 294L769.7 235L716.7 345Z" fill="#19435d" stroke="#19435d"></path><path d="M747.7 214L770.7 70L628 128Z" fill="#15384f" stroke="#15384f"></path><path d="M129.7 540L204.3 540L250.3 430Z" fill="#081a28" stroke="#081a28"></path><path d="M546.3 540L629 540L549.3 478Z" fill="#1d4e6b" stroke="#1d4e6b"></path><path d="M227.3 0L112.7 0L201.3 99Z" fill="#15384f" stroke="#15384f"></path><path d="M840.3 200L770.7 70L747.7 214Z" fill="#0c2435" stroke="#0c2435"></path><path d="M820.3 380L814.3 294L716.7 345Z" fill="#0c2435" stroke="#0c2435"></path><path d="M769.7 235L840.3 200L747.7 214Z" fill="#1d4e6b" stroke="#1d4e6b"></path><path d="M820.3 380L716.7 345L706.7 416Z" fill="#205a7a" stroke="#205a7a"></path><path d="M770.7 70L743.7 0L628 128Z" fill="#246688" stroke="#246688"></path><path d="M111.7 384L129.7 540L250.3 430Z" fill="#0c2435" stroke="#0c2435"></path><path d="M66.7 486L129.7 540L111.7 384Z" fill="#15384f" stroke="#15384f"></path><path d="M0 140L89.7 242L93.7 166Z" fill="#1d4e6b" stroke="#1d4e6b"></path><path d="M89.7 242L0 297L111.7 384Z" fill="#1d4e6b" stroke="#1d4e6b"></path><path d="M0 140L93.7 166L94.7 110Z" fill="#19435d" stroke="#19435d"></path><path d="M629 540L706.7 540L639 445Z" fill="#246688" stroke="#246688"></path><path d="M0 50L0 140L94.7 110Z" fill="#1d4e6b" stroke="#1d4e6b"></path><path d="M0 430L66.7 486L111.7 384Z" fill="#1d4e6b" stroke="#1d4e6b"></path><path d="M814.3 294L840.3 200L769.7 235Z" fill="#15384f" stroke="#15384f"></path><path d="M770.7 70L839.3 0L743.7 0Z" fill="#15384f" stroke="#15384f"></path><path d="M847.3 411L820.3 380L706.7 416Z" fill="#081a28" stroke="#081a28"></path><path d="M814.3 294L960 231L840.3 200Z" fill="#112e42" stroke="#112e42"></path><path d="M0 297L0 394L111.7 384Z" fill="#19435d" stroke="#19435d"></path><path d="M112.7 0L0 50L94.7 110Z" fill="#00101c" stroke="#00101c"></path><path d="M0 394L0 430L111.7 384Z" fill="#246688" stroke="#246688"></path><path d="M66.7 486L0 540L129.7 540Z" fill="#112e42" stroke="#112e42"></path><path d="M706.7 540L847.3 411L706.7 416Z" fill="#1d4e6b" stroke="#1d4e6b"></path><path d="M820.3 380L960 341L814.3 294Z" fill="#205a7a" stroke="#205a7a"></path><path d="M112.7 0L0 0L0 50Z" fill="#081a28" stroke="#081a28"></path><path d="M960 170L867.3 77L840.3 200Z" fill="#112e42" stroke="#112e42"></path><path d="M840.3 200L867.3 77L770.7 70Z" fill="#19435d" stroke="#19435d"></path><path d="M867.3 77L839.3 0L770.7 70Z" fill="#205a7a" stroke="#205a7a"></path><path d="M0 430L0 540L66.7 486Z" fill="#19435d" stroke="#19435d"></path><path d="M960 341L960 231L814.3 294Z" fill="#246688" stroke="#246688"></path><path d="M867.3 77L960 0L839.3 0Z" fill="#297ea6" stroke="#297ea6"></path><path d="M960 231L960 170L840.3 200Z" fill="#246688" stroke="#246688"></path><path d="M847.3 411L960 341L820.3 380Z" fill="#277297" stroke="#277297"></path><path d="M960 473L960 341L847.3 411Z" fill="#112e42" stroke="#112e42"></path><path d="M706.7 540L882.3 540L847.3 411Z" fill="#00101c" stroke="#00101c"></path><path d="M960 170L960 75L867.3 77Z" fill="#15384f" stroke="#15384f"></path><path d="M882.3 540L960 473L847.3 411Z" fill="#081a28" stroke="#081a28"></path><path d="M960 75L960 0L867.3 77Z" fill="#246688" stroke="#246688"></path><path d="M882.3 540L960 540L960 473Z" fill="#297ea6" stroke="#297ea6"></path></g></svg>