<svg id="visual" viewBox="0 0 960 540" width="960" height="540" xmlns="http://www.w3.org/2000/svg" xmlns:xlink="http://www.w3.org/1999/xlink" version="1.1"><rect width="960" height="540" fill="#aaa"></rect><g><g transform="translate(675 268)"><path d="M0 -44.8L31.7 -31.7L44.8 0L31.7 31.7L0 44.8L-31.7 31.7L-44.8 0L-31.7 -31.7Z" fill="#999"></path></g><g transform="translate(84 281)"><path d="M0 -5L3.5 -3.5L5 0L3.5 3.5L0 5L-3.5 3.5L-5 0L-3.5 -3.5Z" fill="#999"></path></g><g transform="translate(517 319)"><path d="M0 -17L12 -12L17 0L12 12L0 17L-12 12L-17 0L-12 -12Z" fill="#999"></path></g><g transform="translate(20 91)"><path d="M0 -31L21.9 -21.9L31 0L21.9 21.9L0 31L-21.9 21.9L-31 0L-21.9 -21.9Z" fill="#999"></path></g><g transform="translate(887 424)"><path d="M0 -24L17 -17L24 0L17 17L0 24L-17 17L-24 0L-17 -17Z" fill="#999"></path></g><g transform="translate(595 216)"><path d="M0 -25L17.7 -17.7L25 0L17.7 17.7L0 25L-17.7 17.7L-25 0L-17.7 -17.7Z" fill="#999"></path></g><g transform="translate(170 509)"><path d="M0 -33L23.3 -23.3L33 0L23.3 23.3L0 33L-23.3 23.3L-33 0L-23.3 -23.3Z" fill="#999"></path></g><g transform="translate(384 254)"><path d="M0 -13L9.2 -9.2L13 0L9.2 9.2L0 13L-9.2 9.2L-13 0L-9.2 -9.2Z" fill="#999"></path></g><g transform="translate(395 474)"><path d="M0 -30L21.2 -21.2L30 0L21.2 21.2L0 30L-21.2 21.2L-30 0L-21.2 -21.2Z" fill="#999"></path></g><g transform="translate(864 54)"><path d="M0 -17L12 -12L17 0L12 12L0 17L-12 12L-17 0L-12 -12Z" fill="#999"></path></g><g transform="translate(614 54)"><path d="M0 -11L7.8 -7.8L11 0L7.8 7.8L0 11L-7.8 7.8L-11 0L-7.8 -7.8Z" fill="#999"></path></g><g transform="translate(206 145)"><path d="M0 -39L27.6 -27.6L39 0L27.6 27.6L0 39L-27.6 27.6L-39 0L-27.6 -27.6Z" fill="#999"></path></g><g transform="translate(284 225)"><path d="M0 -13L9.2 -9.2L13 0L9.2 9.2L0 13L-9.2 9.2L-13 0L-9.2 -9.2Z" fill="#999"></path></g><g transform="translate(875 203)"><path d="M0 -13L9.2 -9.2L13 0L9.2 9.2L0 13L-9.2 9.2L-13 0L-9.2 -9.2Z" fill="#999"></path></g><g transform="translate(260 6)"><path d="M0 -18L12.7 -12.7L18 0L12.7 12.7L0 18L-12.7 12.7L-18 0L-12.7 -12.7Z" fill="#999"></path></g><g transform="translate(754 53)"><path d="M0 -25L17.7 -17.7L25 0L17.7 17.7L0 25L-17.7 17.7L-25 0L-17.7 -17.7Z" fill="#999"></path></g><g transform="translate(114 180)"><path d="M0 -39L27.6 -27.6L39 0L27.6 27.6L0 39L-27.6 27.6L-39 0L-27.6 -27.6Z" fill="#999"></path></g><g transform="translate(685 365)"><path d="M0 -24L17 -17L24 0L17 17L0 24L-17 17L-24 0L-17 -17Z" fill="#999"></path></g><g transform="translate(389 132)"><path d="M0 -12L8.5 -8.5L12 0L8.5 8.5L0 12L-8.5 8.5L-12 0L-8.5 -8.5Z" fill="#999"></path></g><g transform="translate(627 483)"><path d="M0 -5L3.5 -3.5L5 0L3.5 3.5L0 5L-3.5 3.5L-5 0L-3.5 -3.5Z" fill="#999"></path></g><g transform="translate(910 535)"><path d="M0 -41L29 -29L41 0L29 29L0 41L-29 29L-41 0L-29 -29Z" fill="#999"></path></g><g transform="translate(519 509)"><path d="M0 -24L17 -17L24 0L17 17L0 24L-17 17L-24 0L-17 -17Z" fill="#999"></path></g><g transform="translate(120 427)"><path d="M0 -35L24.7 -24.7L35 0L24.7 24.7L0 35L-24.7 24.7L-35 0L-24.7 -24.7Z" fill="#999"></path></g><g transform="translate(731 475)"><path d="M0 -25L17.7 -17.7L25 0L17.7 17.7L0 25L-17.7 17.7L-25 0L-17.7 -17.7Z" fill="#999"></path></g><g transform="translate(364 20)"><path d="M0 -43L30.4 -30.4L43 0L30.4 30.4L0 43L-30.4 30.4L-43 0L-30.4 -30.4Z" fill="#999"></path></g><g transform="translate(866 320)"><path d="M0 -43L30.4 -30.4L43 0L30.4 30.4L0 43L-30.4 30.4L-43 0L-30.4 -30.4Z" fill="#999"></path></g><g transform="translate(284 357)"><path d="M0 -37L26.2 -26.2L37 0L26.2 26.2L0 37L-26.2 26.2L-37 0L-26.2 -26.2Z" fill="#999"></path></g><g transform="translate(503 56)"><path d="M0 -19L13.4 -13.4L19 0L13.4 13.4L0 19L-13.4 13.4L-19 0L-13.4 -13.4Z" fill="#999"></path></g><g transform="translate(531 410)"><path d="M0 -9L6.4 -6.4L9 0L6.4 6.4L0 9L-6.4 6.4L-9 0L-6.4 -6.4Z" fill="#999"></path></g><g transform="translate(307 514)"><path d="M0 -35L24.7 -24.7L35 0L24.7 24.7L0 35L-24.7 24.7L-35 0L-24.7 -24.7Z" fill="#999"></path></g><g transform="translate(715 184)"><path d="M0 -16L11.3 -11.3L16 0L11.3 11.3L0 16L-11.3 11.3L-16 0L-11.3 -11.3Z" fill="#999"></path></g><g transform="translate(187 250)"><path d="M0 -30L21.2 -21.2L30 0L21.2 21.2L0 30L-21.2 21.2L-30 0L-21.2 -21.2Z" fill="#999"></path></g><g transform="translate(9 434)"><path d="M0 -29L20.5 -20.5L29 0L20.5 20.5L0 29L-20.5 20.5L-29 0L-20.5 -20.5Z" fill="#999"></path></g><g transform="translate(958 81)"><path d="M0 -19L13.4 -13.4L19 0L13.4 13.4L0 19L-13.4 13.4L-19 0L-13.4 -13.4Z" fill="#999"></path></g><g transform="translate(13 527)"><path d="M0 -33L23.3 -23.3L33 0L23.3 23.3L0 33L-23.3 23.3L-33 0L-23.3 -23.3Z" fill="#999"></path></g><g transform="translate(242 439)"><path d="M0 -43L30.4 -30.4L43 0L30.4 30.4L0 43L-30.4 30.4L-43 0L-30.4 -30.4Z" fill="#999"></path></g><g transform="translate(812 528)"><path d="M0 -26L18.4 -18.4L26 0L18.4 18.4L0 26L-18.4 18.4L-26 0L-18.4 -18.4Z" fill="#999"></path></g><g transform="translate(288 93)"><path d="M0 -26L18.4 -18.4L26 0L18.4 18.4L0 26L-18.4 18.4L-26 0L-18.4 -18.4Z" fill="#999"></path></g><g transform="translate(489 204)"><path d="M0 -37L26.2 -26.2L37 0L26.2 26.2L0 37L-26.2 26.2L-37 0L-26.2 -26.2Z" fill="#999"></path></g><g transform="translate(94 14)"><path d="M0 -30L21.2 -21.2L30 0L21.2 21.2L0 30L-21.2 21.2L-30 0L-21.2 -21.2Z" fill="#999"></path></g><g transform="translate(13 202)"><path d="M0 -21L14.8 -14.8L21 0L14.8 14.8L0 21L-14.8 14.8L-21 0L-14.8 -14.8Z" fill="#999"></path></g><g transform="translate(779 298)"><path d="M0 -9L6.4 -6.4L9 0L6.4 6.4L0 9L-6.4 6.4L-9 0L-6.4 -6.4Z" fill="#999"></path></g><g transform="translate(5 343)"><path d="M0 -20L14.1 -14.1L20 0L14.1 14.1L0 20L-14.1 14.1L-20 0L-14.1 -14.1Z" fill="#999"></path></g><g transform="translate(177 60)"><path d="M0 -37L26.2 -26.2L37 0L26.2 26.2L0 37L-26.2 26.2L-37 0L-26.2 -26.2Z" fill="#999"></path></g><g transform="translate(780 399)"><path d="M0 -40L28.3 -28.3L40 0L28.3 28.3L0 40L-28.3 28.3L-40 0L-28.3 -28.3Z" fill="#999"></path></g><g transform="translate(427 356)"><path d="M0 -22L15.6 -15.6L22 0L15.6 15.6L0 22L-15.6 15.6L-22 0L-15.6 -15.6Z" fill="#999"></path></g><g transform="translate(191 352)"><path d="M0 -42L29.7 -29.7L42 0L29.7 29.7L0 42L-29.7 29.7L-42 0L-29.7 -29.7Z" fill="#999"></path></g><g transform="translate(956 301)"><path d="M0 -22L15.6 -15.6L22 0L15.6 15.6L0 22L-15.6 15.6L-22 0L-15.6 -15.6Z" fill="#999"></path></g><g transform="translate(802 140)"><path d="M0 -27L19.1 -19.1L27 0L19.1 19.1L0 27L-19.1 19.1L-27 0L-19.1 -19.1Z" fill="#999"></path></g></g></svg>